<svg xmlns="http://www.w3.org/2000/svg" xmlns:xlink="http://www.w3.org/1999/xlink" version="1.1" x="0px" y="0px" viewBox="0 0 95 118.75" enable-background="new 0 0 95 95" xml:space="preserve"><path d="M32.607,5.49L47.5,11.075l-2.598,0.974c-0.415,0-0.751,0.263-0.751,0.586v0.562c0,0-3.363-0.987-3.446-0.97  c-0.083,0.015-0.143,0.308-0.104,0.37c0.038,0.063,3.551,1,3.551,1v1.302c0,0-3.525,0.912-3.551,1.001  c-0.027,0.087,0.051,0.299,0.104,0.37c0.053,0.071,3.446-0.971,3.446-0.971v0.695c0,0.323,0.336,0.586,0.751,0.586l2.598,0.8  l-14.893,4.588c-0.414,0-0.75-0.262-0.75-0.586V6.076C31.856,5.752,32.193,5.49,32.607,5.49z"/><path d="M62.393,5.49L47.5,11.075l2.597,0.974c0.415,0,0.751,0.263,0.751,0.586v0.562c0,0,3.364-0.987,3.448-0.97  c0.082,0.015,0.142,0.308,0.104,0.37c-0.038,0.063-3.553,1-3.553,1v1.302c0,0,3.525,0.912,3.553,1.001  c0.026,0.087-0.052,0.299-0.104,0.37c-0.054,0.071-3.448-0.971-3.448-0.971v0.695c0,0.323-0.336,0.586-0.751,0.586l-2.597,0.8  l14.893,4.588c0.414,0,0.751-0.262,0.751-0.586V6.076C63.144,5.752,62.807,5.49,62.393,5.49z"/><path d="M50.928,18.125c0,0.376-0.365,0.682-0.817,0.682h-5.222c-0.451,0-0.816-0.306-0.816-0.682V9.804  c0-0.376,0.365-0.682,0.816-0.682h5.222c0.452,0,0.817,0.305,0.817,0.682V18.125z"/><circle fill="#000000" cx="47.262" cy="27.76" r="2.379"/><circle fill="#000000" cx="47.262" cy="38.94" r="2.379"/><circle fill="#000000" cx="47.262" cy="50.121" r="2.379"/><g><polygon points="83.058,0 47.5,64.714 10.959,0 0,0 0,95 95,95 95,0  "/></g><text x="0" y="110" fill="#000000" font-size="5px" font-weight="bold" font-family="'Helvetica Neue', Helvetica, Arial-Unicode, Arial, Sans-serif">Created by Lilit Kalachyan</text><text x="0" y="115" fill="#000000" font-size="5px" font-weight="bold" font-family="'Helvetica Neue', Helvetica, Arial-Unicode, Arial, Sans-serif">from the Noun Project</text></svg>